<svg xmlns="http://www.w3.org/2000/svg" xmlns:xlink="http://www.w3.org/1999/xlink" version="1.1" id="v-2" width="962" height="872" class="waiting"><defs id="v-4" class="waiting"><marker id="v-2-479506292" orient="auto" overflow="visible" markerUnits="userSpaceOnUse" class="waiting"><path id="v-163" stroke="black" fill="none" transform="rotate(180)" d="m 10,-6 l 0,12" stroke-width="1.2" class="waiting"/></marker><marker id="v-21429980022" orient="auto" overflow="visible" markerUnits="userSpaceOnUse" class="waiting"><path id="v-171" stroke="black" fill="none" transform="rotate(180)" d="m 10,-6 l -10,6 10,6" stroke-width="1.2" class="waiting"/></marker><marker id="v-2-933205445" orient="auto" overflow="visible" markerUnits="userSpaceOnUse" class="waiting"><path id="v-193" stroke="black" fill="black" transform="rotate(180)" d="m 12,-6 l -12,6 12,6 z" stroke-width="1.2" class="waiting"/></marker></defs><g id="v-3" class="joint-viewport waiting" style="cursor: move;" transform="matrix(1,0,0,1,-148,-14)"><g model-id="579e466d-5a98-40e0-a9c9-df694e7f778d" id="j_35" class="joint-cell joint-type-container joint-element joint-theme-default waiting" data-type="Container" transform="translate(1040,250)" style="cursor: move;"><g id="v-236" style="cursor: move;" class="waiting"><rect class="boundary waiting" id="v-239" fill="rgb(242,242,242)" height="130" rx="100" ry="40" stroke="black" stroke-dasharray="10,5,4,4" stroke-width="2" width="210" display="none" style=""/><circle class="element actorSymbol waiting" id="v-237" cx="40" cy="40" fill="rgb(205,254,205)" r="40" stroke="black" stroke-width="2" transform="translate(-20, -20)" style=""/><path class="actorDecorator waiting" id="v-240" d="m -11 -5 62 0" fill="none" stroke="black" stroke-width="1.5" style=""/><text class="content waiting" id="v-238" font-size="12" xml:space="preserve" y="0.8em" fill="#000000" font-family="Arial, helvetica, sans-serif" text-anchor="middle" transform="matrix(1,0,0,1,20,14.4)"><tspan dy="0" class="v-line waiting">Agent</tspan></text></g></g><g model-id="0ef6855e-2007-485b-bbbb-f921a2fc3dc4" id="j_34" class="joint-cell joint-type-container joint-element joint-theme-default waiting" data-type="Container" transform="translate(178,276)" style="cursor: move;"><g id="v-229" style="cursor: move;" class="waiting"><rect class="boundary waiting" id="v-232" fill="rgb(242,242,242)" height="120" rx="100" ry="40" stroke="black" stroke-dasharray="10,5,4,4" stroke-width="2" width="200" display="none" style=""/><circle class="element actorSymbol waiting" id="v-230" cx="40" cy="40" fill="rgb(205,254,205)" r="40" stroke="black" stroke-width="2" transform="translate(-20, -20)" style=""/><path class="waiting"/><text class="content waiting" id="v-231" font-size="12" xml:space="preserve" y="0.8em" fill="#000000" font-family="Arial, helvetica, sans-serif" text-anchor="middle" transform="matrix(1,0,0,1,20,14.4)"><tspan dy="0" class="v-line waiting">Actor</tspan></text></g></g><g model-id="a2a63caa-d710-4706-b63c-6efb60c80461" id="j_78" class="joint-cell joint-type-dependencylink joint-link joint-theme-default waiting" data-type="DependencyLink" style="cursor: move;"><path joint-selector="connection-wrap" id="v-490" fill="none" stroke="rgba(190, 190, 190, 0)" stroke-linecap="round" stroke-width="30" d="M 671.67 154.19 L 1020 258.07" class="c-connection-wrap waiting"/><path joint-selector="line" id="v-489" fill="none" stroke="black" stroke-width="1" d="M 671.67 154.19 L 1020 258.07" class="waiting"/><path joint-selector="label" id="v-491" d="m 0,-10 l 0,20 4,0 c 10,0, 10 -20, 0,-20 l -4,0" fill="white" stroke="black" stroke-width="2" transform="matrix(0.9582937130395813,0.2857851632762146,-0.2857851632762146,0.9582937130395813,845.8,206.1)" class="waiting"/></g><g model-id="85d5876e-1989-4024-9966-cb60a7ffb298" id="j_77" class="joint-cell joint-type-dependencylink joint-link joint-theme-default waiting" data-type="DependencyLink" style="cursor: move;"><path joint-selector="connection-wrap" id="v-487" fill="none" stroke="rgba(190, 190, 190, 0)" stroke-linecap="round" stroke-width="30" d="M 238 281.67 L 592.88 154.51" class="c-connection-wrap waiting"/><path joint-selector="line" id="v-486" fill="none" stroke="black" stroke-width="1" d="M 238 281.67 L 592.88 154.51" class="waiting"/><path joint-selector="label" id="v-488" d="m 0,-10 l 0,20 4,0 c 10,0, 10 -20, 0,-20 l -4,0" fill="white" stroke="black" stroke-width="2" transform="matrix(0.941390907064734,-0.3373175952953496,0.3373175952953496,0.941390907064734,415.4,218.1)" class="waiting"/></g><g model-id="99ea656c-b329-44f1-b0dc-7dd2a7166ece" id="j_75" class="joint-cell joint-type-dependencylink joint-link joint-theme-default waiting" data-type="DependencyLink" style="cursor: move;"><path joint-selector="connection-wrap" id="v-441" fill="none" stroke="rgba(190, 190, 190, 0)" stroke-linecap="round" stroke-width="30" d="M 674.91 377.81 L 1020 281.2" class="c-connection-wrap waiting"/><path joint-selector="line" id="v-440" fill="none" stroke="black" stroke-width="1" d="M 674.91 377.81 L 1020 281.2" class="waiting"/><path joint-selector="label" id="v-442" d="m 0,-10 l 0,20 4,0 c 10,0, 10 -20, 0,-20 l -4,0" fill="white" stroke="black" stroke-width="2" transform="matrix(0.9629750960916371,-0.2695903638991986,0.2695903638991986,0.9629750960916371,847.5,329.5)" class="waiting"/></g><g model-id="f390c191-d721-459e-8a6e-335f7a9054b6" id="j_74" class="joint-cell joint-type-dependencylink joint-link joint-theme-default waiting" data-type="DependencyLink" style="cursor: move;"><path joint-selector="connection-wrap" id="v-438" fill="none" stroke="rgba(190, 190, 190, 0)" stroke-linecap="round" stroke-width="30" d="M 238 304.81 L 573.63 378.73" class="c-connection-wrap waiting"/><path joint-selector="line" id="v-437" fill="none" stroke="black" stroke-width="1" d="M 238 304.81 L 573.63 378.73" class="waiting"/><path joint-selector="label" id="v-439" d="m 0,-10 l 0,20 4,0 c 10,0, 10 -20, 0,-20 l -4,0" fill="white" stroke="black" stroke-width="2" transform="matrix(0.9765947378865582,0.2150876982355913,-0.2150876982355913,0.9765947378865582,405.8,341.8)" class="waiting"/></g><g model-id="1c06efcf-8036-4f40-a90e-f9f2445afebc" id="j_72" class="joint-cell joint-type-dependencylink joint-link joint-theme-default waiting" data-type="DependencyLink" style="cursor: move;"><path joint-selector="connection-wrap" id="v-426" fill="none" stroke="rgba(190, 190, 190, 0)" stroke-linecap="round" stroke-width="30" d="M 658.18 456.51 L 1020 288.57" class="c-connection-wrap waiting"/><path joint-selector="line" id="v-425" fill="none" stroke="black" stroke-width="1" d="M 658.18 456.51 L 1020 288.57" class="waiting"/><path joint-selector="label" id="v-427" d="m 0,-10 l 0,20 4,0 c 10,0, 10 -20, 0,-20 l -4,0" fill="white" stroke="black" stroke-width="2" transform="matrix(0.9070548231914756,-0.4210125268030406,0.4210125268030406,0.9070548231914756,839.1,372.5)" class="waiting"/></g><g model-id="43c4b7d9-612c-4e42-ad3b-789f378c2005" id="j_71" class="joint-cell joint-type-dependencylink joint-link joint-theme-default waiting" data-type="DependencyLink" style="cursor: move;"><path joint-selector="connection-wrap" id="v-423" fill="none" stroke="rgba(190, 190, 190, 0)" stroke-linecap="round" stroke-width="30" d="M 238 312.06 L 597.79 456.51" class="c-connection-wrap waiting"/><path joint-selector="line" id="v-422" fill="none" stroke="black" stroke-width="1" d="M 238 312.06 L 597.79 456.51" class="waiting"/><path joint-selector="label" id="v-424" d="m 0,-10 l 0,20 4,0 c 10,0, 10 -20, 0,-20 l -4,0" fill="white" stroke="black" stroke-width="2" transform="matrix(0.9280009834961448,0.3725777430687292,-0.3725777430687292,0.9280009834961448,417.9,384.3)" class="waiting"/></g><g model-id="77516042-4af0-499c-9bc3-fe7c3d4b8a74" id="j_69" class="joint-cell joint-type-dependencylink joint-link joint-theme-default waiting" data-type="DependencyLink" style="cursor: move;"><path joint-selector="connection-wrap" id="v-411" fill="none" stroke="rgba(190, 190, 190, 0)" stroke-linecap="round" stroke-width="30" d="M 648.34 549.21 L 1020 297.13" class="c-connection-wrap waiting"/><path joint-selector="line" id="v-410" fill="none" stroke="black" stroke-width="1" d="M 648.34 549.21 L 1020 297.13" class="waiting"/><path joint-selector="label" id="v-412" d="m 0,-10 l 0,20 4,0 c 10,0, 10 -20, 0,-20 l -4,0" fill="white" stroke="black" stroke-width="2" transform="matrix(0.8275977383339159,-0.5613216399753239,0.5613216399753239,0.8275977383339159,834.2,423.2)" class="waiting"/></g><g model-id="524a1951-0e9d-408f-94a8-aba6ee565322" id="j_68" class="joint-cell joint-type-dependencylink joint-link joint-theme-default waiting" data-type="DependencyLink" style="cursor: move;"><path joint-selector="connection-wrap" id="v-408" fill="none" stroke="rgba(190, 190, 190, 0)" stroke-linecap="round" stroke-width="30" d="M 238 320.7 L 608.11 549.21" class="c-connection-wrap waiting"/><path joint-selector="line" id="v-407" fill="none" stroke="black" stroke-width="1" d="M 238 320.7 L 608.11 549.21" class="waiting"/><path joint-selector="label" id="v-409" d="m 0,-10 l 0,20 4,0 c 10,0, 10 -20, 0,-20 l -4,0" fill="white" stroke="black" stroke-width="2" transform="matrix(0.8508877638570438,0.5253475167147549,-0.5253475167147549,0.8508877638570438,423.1,435)" class="waiting"/></g><g model-id="75fbceeb-b8aa-41bb-8cd1-9c227a6ade6c" id="j_66" class="joint-cell joint-type-dependencylink joint-link joint-theme-default waiting" data-type="DependencyLink" style="cursor: move;"><path joint-selector="connection-wrap" id="v-396" fill="none" stroke="rgba(190, 190, 190, 0)" stroke-linecap="round" stroke-width="30" d="M 650.05 831.21 L 1030.78 310" class="c-connection-wrap waiting"/><path joint-selector="line" id="v-395" fill="none" stroke="black" stroke-width="1" d="M 650.05 831.21 L 1030.78 310" class="waiting"/><path joint-selector="label" id="v-397" d="m 0,-10 l 0,20 4,0 c 10,0, 10 -20, 0,-20 l -4,0" fill="white" stroke="black" stroke-width="2" transform="matrix(0.5898607221272529,-0.8075050021464361,0.8075050021464361,0.5898607221272529,840.4,570.6)" class="waiting"/></g><g model-id="2b72d076-ea0a-4fb0-8e66-a65b8fffa662" id="j_65" class="joint-cell joint-type-dependencylink joint-link joint-theme-default waiting" data-type="DependencyLink" style="cursor: move;"><path joint-selector="connection-wrap" id="v-393" fill="none" stroke="rgba(190, 190, 190, 0)" stroke-linecap="round" stroke-width="30" d="M 229.62 336 L 621.15 831.21" class="c-connection-wrap waiting"/><path joint-selector="line" id="v-392" fill="none" stroke="black" stroke-width="1" d="M 229.62 336 L 621.15 831.21" class="waiting"/><path joint-selector="label" id="v-394" d="m 0,-10 l 0,20 4,0 c 10,0, 10 -20, 0,-20 l -4,0" fill="white" stroke="black" stroke-width="2" transform="matrix(0.6202049736212978,0.7844397941814307,-0.7844397941814307,0.6202049736212978,425.4,583.6)" class="waiting"/></g><g model-id="c9c8fdb7-61e2-4f14-ba31-a9c4a1617246" id="j_63" class="joint-cell joint-type-dependencylink joint-link joint-theme-default waiting" data-type="DependencyLink" style="cursor: move;"><path joint-selector="connection-wrap" id="v-380" fill="none" stroke="rgba(190, 190, 190, 0)" stroke-linecap="round" stroke-width="30" d="M 613.67 735.01 L 235.87 336" class="c-connection-wrap waiting"/><path joint-selector="line" id="v-379" fill="none" stroke="black" stroke-width="1" d="M 613.67 735.01 L 235.87 336" class="waiting"/><path joint-selector="label" id="v-381" d="m 0,-10 l 0,20 4,0 c 10,0, 10 -20, 0,-20 l -4,0" fill="white" stroke="black" stroke-width="2" transform="matrix(-0.6875437608835242,-0.7261429452044131,0.7261429452044131,-0.6875437608835242,424.8,535.5)" class="waiting"/></g><g model-id="6522fd57-d36e-479b-8e42-ac1e0ac6bf13" id="j_62" class="joint-cell joint-type-dependencylink joint-link joint-theme-default waiting" data-type="DependencyLink" style="cursor: move;"><path joint-selector="connection-wrap" id="v-377" fill="none" stroke="rgba(190, 190, 190, 0)" stroke-linecap="round" stroke-width="30" d="M 1024.6 310 L 648.48 735.01" class="c-connection-wrap waiting"/><path joint-selector="line" id="v-376" fill="none" stroke="black" stroke-width="1" d="M 1024.6 310 L 648.48 735.01" class="waiting"/><path joint-selector="label" id="v-378" d="m 0,-10 l 0,20 4,0 c 10,0, 10 -20, 0,-20 l -4,0" fill="white" stroke="black" stroke-width="2" transform="matrix(-0.6627217661800388,0.7488657160207096,-0.7488657160207096,-0.6627217661800388,836.5,522.5)" class="waiting"/></g><g model-id="df084e94-7f62-49db-bc7c-a9aed5287cf2" id="j_59" class="joint-cell joint-type-dependencylink joint-link joint-theme-default waiting" data-type="DependencyLink" style="cursor: move;"><path joint-selector="connection-wrap" id="v-360" fill="none" stroke="rgba(190, 190, 190, 0)" stroke-linecap="round" stroke-width="30" d="M 614.13 644.01 L 238 329.45" class="c-connection-wrap waiting"/><path joint-selector="line" id="v-359" fill="none" stroke="black" stroke-width="1" d="M 614.13 644.01 L 238 329.45" class="waiting"/><path joint-selector="label" id="v-361" d="m 0,-10 l 0,20 4,0 c 10,0, 10 -20, 0,-20 l -4,0" fill="white" stroke="black" stroke-width="2" transform="matrix(-0.7670984221034263,-0.641529430974475,0.641529430974475,-0.7670984221034263,426.1,486.7)" class="waiting"/></g><g model-id="a9960579-3527-4d3b-b895-e01fad34bf96" id="j_58" class="joint-cell joint-type-dependencylink joint-link joint-theme-default waiting" data-type="DependencyLink" style="cursor: move;"><path joint-selector="connection-wrap" id="v-357" fill="none" stroke="rgba(190, 190, 190, 0)" stroke-linecap="round" stroke-width="30" d="M 1020 305.97 L 644.14 644.01" class="c-connection-wrap waiting"/><path joint-selector="line" id="v-356" fill="none" stroke="black" stroke-width="1" d="M 1020 305.97 L 644.14 644.01" class="waiting"/><path joint-selector="label" id="v-358" d="m 0,-10 l 0,20 4,0 c 10,0, 10 -20, 0,-20 l -4,0" fill="white" stroke="black" stroke-width="2" transform="matrix(-0.7435242724465805,0.66870894736259,-0.66870894736259,-0.7435242724465805,832.1,475)" class="waiting"/></g><g model-id="0b9060d1-f964-4333-8321-db789658084c" id="j_47" class="joint-cell joint-type-dependencylink joint-link joint-theme-default waiting" data-type="DependencyLink" style="cursor: move;"><path joint-selector="connection-wrap" id="v-299" fill="none" stroke="rgba(190, 190, 190, 0)" stroke-linecap="round" stroke-width="30" d="M 588.5 305.02 L 238 296.92" class="c-connection-wrap waiting"/><path joint-selector="line" id="v-298" fill="none" stroke="black" stroke-width="1" d="M 588.5 305.02 L 238 296.92" class="waiting"/><path joint-selector="label" id="v-300" d="m 0,-10 l 0,20 4,0 c 10,0, 10 -20, 0,-20 l -4,0" fill="white" stroke="black" stroke-width="2" transform="matrix(-0.9997330716791772,-0.023103796028296538,0.023103796028296538,-0.9997330716791772,413.3,301)" class="waiting"/></g><g model-id="7f179c16-9801-4bc2-9fc0-4704ec6e3441" id="j_46" class="joint-cell joint-type-dependencylink joint-link joint-theme-default waiting" data-type="DependencyLink" style="cursor: move;"><path joint-selector="connection-wrap" id="v-296" fill="none" stroke="rgba(190, 190, 190, 0)" stroke-linecap="round" stroke-width="30" d="M 1020 273.36 L 674.17 302.41" class="c-connection-wrap waiting"/><path joint-selector="line" id="v-295" fill="none" stroke="black" stroke-width="1" d="M 1020 273.36 L 674.17 302.41" class="waiting"/><path joint-selector="label" id="v-297" d="m 0,-10 l 0,20 4,0 c 10,0, 10 -20, 0,-20 l -4,0" fill="white" stroke="black" stroke-width="2" transform="matrix(-0.9964904922096878,0.08370602687796294,-0.08370602687796294,-0.9964904922096878,847.1,287.9)" class="waiting"/></g><g model-id="3c2f8e6c-941c-4082-bbe6-7050f862b6c2" id="j_44" class="joint-cell joint-type-dependencylink joint-link joint-theme-default waiting" data-type="DependencyLink" style="cursor: move;"><path joint-selector="connection-wrap" id="v-284" fill="none" stroke="rgba(190, 190, 190, 0)" stroke-linecap="round" stroke-width="30" d="M 673.34 233.96 L 1020 266.27" class="c-connection-wrap waiting"/><path joint-selector="line" id="v-283" fill="none" stroke="black" stroke-width="1" d="M 673.34 233.96 L 1020 266.27" class="waiting"/><path joint-selector="label" id="v-285" d="m 0,-10 l 0,20 4,0 c 10,0, 10 -20, 0,-20 l -4,0" fill="white" stroke="black" stroke-width="2" transform="matrix(0.9956846292276362,0.09280150386617944,-0.09280150386617944,0.9956846292276362,846.7,250.1)" class="waiting"/></g><g model-id="368449c5-dca4-4721-aca0-b77611d9d456" id="j_43" class="joint-cell joint-type-dependencylink joint-link joint-theme-default waiting" data-type="DependencyLink" style="cursor: move;"><path joint-selector="connection-wrap" id="v-281" fill="none" stroke="rgba(190, 190, 190, 0)" stroke-linecap="round" stroke-width="30" d="M 238 289.95 L 593 236.28" class="c-connection-wrap waiting"/><path joint-selector="line" id="v-280" fill="none" stroke="black" stroke-width="1" d="M 238 289.95 L 593 236.28" class="waiting"/><path joint-selector="label" id="v-282" d="m 0,-10 l 0,20 4,0 c 10,0, 10 -20, 0,-20 l -4,0" fill="white" stroke="black" stroke-width="2" transform="matrix(0.9887640895954638,-0.14948436415375924,0.14948436415375924,0.9887640895954638,415.5,263.1)" class="waiting"/></g><g model-id="677b0c2d-45c6-43fc-af9d-ca37d820d2b9" id="j_38" class="joint-cell joint-type-dependencylink joint-link joint-theme-default waiting" data-type="DependencyLink" style="cursor: move;"><path joint-selector="connection-wrap" id="v-254" fill="none" stroke="rgba(190, 190, 190, 0)" stroke-linecap="round" stroke-width="30" d="M 652.94 62.51 L 1020 249.61" class="c-connection-wrap waiting"/><path joint-selector="line" id="v-253" fill="none" stroke="black" stroke-width="1" d="M 652.94 62.51 L 1020 249.61" class="waiting"/><path joint-selector="label" id="v-255" d="m 0,-10 l 0,20 4,0 c 10,0, 10 -20, 0,-20 l -4,0" fill="white" stroke="black" stroke-width="2" transform="matrix(0.8909342570629137,0.45413230406100147,-0.45413230406100147,0.8909342570629137,836.5,156.1)" class="waiting"/></g><g model-id="dc98d011-84e1-471c-996e-66c49a249e3c" id="j_37" class="joint-cell joint-type-dependencylink joint-link joint-theme-default waiting" data-type="DependencyLink" style="cursor: move;"><path joint-selector="connection-wrap" id="v-251" fill="none" stroke="rgba(190, 190, 190, 0)" stroke-linecap="round" stroke-width="30" d="M 238 271.82 L 584.24 62.51" class="c-connection-wrap waiting"/><path joint-selector="line" id="v-250" fill="none" stroke="black" stroke-width="1" d="M 238 271.82 L 584.24 62.51" class="waiting"/><path joint-selector="label" id="v-252" d="m 0,-10 l 0,20 4,0 c 10,0, 10 -20, 0,-20 l -4,0" fill="white" stroke="black" stroke-width="2" transform="matrix(0.8557805092367976,-0.5173390764386615,0.5173390764386615,0.8557805092367976,411.1,167.2)" class="waiting"/></g><g model-id="08a7e8d4-8d02-4882-81de-6285fd08b493" id="j_36" class="joint-cell joint-type-goal joint-element joint-theme-default waiting" data-type="Goal" fill="#ffffff" stroke="none" transform="translate(571,26)" style="cursor: move;"><g class="scalable waiting" transform="scale(0.6923076923076923,1.1666666666666667)" style="cursor: move;"><rect class="element waiting" id="v-245" fill="#F8FA45" height="30" rx="20" stroke="black" stroke-width="2" vector-effect="non-scaling-stroke" width="130"/></g><text class="content waiting" id="v-246" font-size="12" xml:space="preserve" y="0.8em" font-weight="bold" fill="#000000" text-anchor="middle" font-family="Arial, helvetica, sans-serif" transform="matrix(1,0,0,1,45,-0.1)"><tspan dy="0" class="v-line waiting">Rotas até o</tspan><tspan dy="1em" x="0" class="v-line waiting">destino sejam</tspan><tspan dy="1em" x="0" class="v-line waiting">listadas</tspan></text></g><g model-id="75b4987a-99bd-4bd2-93cb-59e7170228ee" id="j_42" class="joint-cell joint-type-quality joint-element joint-theme-default waiting" data-type="Quality" fill="#ffffff" stroke="none" transform="translate(588,201)" style="cursor: move;"><g class="scalable waiting" transform="scale(0.7852376964064524,1.0380876717711)" style="cursor: move;"><path class="element waiting" id="v-275" d="m 60.637955,-4.0358 c 17.5174,2.2042 29.9953,-10.69554 41.892705,-4.7858 22.34142,10.8714 11.2203,43.7743 -2.25,47.7322 -8.276505,2.9084 -13.960205,5.1934 -46.142805,-2.1786 -6.7454,-2.2317 -28.2652,6.0799 -35.4643,4.7143 C 9.072156,39.4809 6.491756,33.7693 3.744956,28.482 c -6.3069,-15.1266 -2.5738,-28.0439 7.981099,-34.7856 10.5549,-6.74179 27.9316,-7.30796 48.9119,2.2678 z" fill="#FA463E" stroke="black" stroke-width="2" vector-effect="non-scaling-stroke" transform="matrix(1,0,0,1,-0.7,11.3)"/></g><text class="content waiting" id="v-276" font-size="12" xml:space="preserve" y="0.8em" font-weight="bold" text-anchor="middle" fill="#000000" font-family="Arial, helvetica, sans-serif" transform="matrix(1,0,0,1,45,11.6)"><tspan dy="0" class="v-line waiting">Sugestões de</tspan><tspan dy="1em" x="0" class="v-line waiting">rotas mais</tspan><tspan dy="1em" x="0" class="v-line waiting">rapidas</tspan></text></g><g model-id="b513ae46-968e-4e4c-8647-b08903a1682e" id="j_45" class="joint-cell joint-type-task joint-element joint-theme-default waiting" data-type="Task" fill="#ffffff" stroke="none" transform="translate(584,288)" style="cursor: move;"><g class="scalable waiting" transform="scale(0.7307692307692307,1)" style="cursor: move;"><polygon class="element waiting" id="v-290" fill="#55FA45" height="36" points="0,18 15,0 115,0 130,18 115,36 15,36" stroke="black" stroke-width="2" vector-effect="non-scaling-stroke" width="130"/></g><text class="content waiting" id="v-291" font-size="12" xml:space="preserve" y="0.8em" font-weight="bold" text-anchor="middle" fill="#000000" font-family="Arial, helvetica, sans-serif" transform="matrix(1,0,0,1,47.5,6.4)"><tspan dy="0" class="v-line waiting">Definir destino</tspan><tspan dy="1em" x="0" class="v-line waiting">no mapa</tspan></text></g><g model-id="4a796c03-1f21-48b7-b178-cf06bae5e034" id="j_57" class="joint-cell joint-type-task joint-element joint-theme-default waiting" data-type="Task" fill="#ffffff" stroke="none" transform="translate(582,639)" style="cursor: move;"><g class="scalable waiting" transform="scale(0.7307692307692307,1)" style="cursor: move;"><polygon class="element waiting" id="v-351" fill="#55FA45" height="36" points="0,18 15,0 115,0 130,18 115,36 15,36" stroke="black" stroke-width="2" vector-effect="non-scaling-stroke" width="130"/></g><text class="content waiting" id="v-352" font-size="12" xml:space="preserve" y="0.8em" font-weight="bold" text-anchor="middle" fill="#000000" font-family="Arial, helvetica, sans-serif" transform="matrix(1,0,0,1,47.5,6.4)"><tspan dy="0" class="v-line waiting">Procurar por</tspan><tspan dy="1em" x="0" class="v-line waiting">endereço</tspan></text></g><g model-id="3a1dcf55-cea3-4a0a-b86b-33be665d5c62" id="j_61" class="joint-cell joint-type-task joint-element joint-theme-default waiting" data-type="Task" fill="#ffffff" stroke="none" transform="translate(584,736)" style="cursor: move;"><g class="scalable waiting" transform="scale(0.7307692307692307,1)" style="cursor: move;"><polygon class="element waiting" id="v-371" fill="#55FA45" height="36" points="0,18 15,0 115,0 130,18 115,36 15,36" stroke="black" stroke-width="2" vector-effect="non-scaling-stroke" width="130"/></g><text class="content waiting" id="v-372" font-size="12" xml:space="preserve" y="0.8em" font-weight="bold" text-anchor="middle" fill="#000000" font-family="Arial, helvetica, sans-serif" transform="matrix(1,0,0,1,47.5,0.4)"><tspan dy="0" class="v-line waiting">Filtar procura</tspan><tspan dy="1em" x="0" class="v-line waiting">por tipo de</tspan><tspan dy="1em" x="0" class="v-line waiting">transporte</tspan></text></g><g model-id="6548a87c-573b-4d75-a29e-f723a94f8b13" id="j_64" class="joint-cell joint-type-quality joint-element joint-theme-default waiting" data-type="Quality" fill="#ffffff" stroke="none" transform="translate(591,821)" style="cursor: move;"><g class="scalable waiting" transform="scale(0.7852376964064524,1.0380876717711)" style="cursor: move;"><path class="element waiting" id="v-387" d="m 60.637955,-4.0358 c 17.5174,2.2042 29.9953,-10.69554 41.892705,-4.7858 22.34142,10.8714 11.2203,43.7743 -2.25,47.7322 -8.276505,2.9084 -13.960205,5.1934 -46.142805,-2.1786 -6.7454,-2.2317 -28.2652,6.0799 -35.4643,4.7143 C 9.072156,39.4809 6.491756,33.7693 3.744956,28.482 c -6.3069,-15.1266 -2.5738,-28.0439 7.981099,-34.7856 10.5549,-6.74179 27.9316,-7.30796 48.9119,2.2678 z" fill="#FA463E" stroke="black" stroke-width="2" vector-effect="non-scaling-stroke" transform="matrix(1,0,0,1,-0.7,11.3)"/></g><text class="content waiting" id="v-388" font-size="12" xml:space="preserve" y="0.8em" font-weight="bold" text-anchor="middle" fill="#000000" font-family="Arial, helvetica, sans-serif" transform="matrix(1,0,0,1,45,11.6)"><tspan dy="0" class="v-line waiting">Facilidade na</tspan><tspan dy="1em" x="0" class="v-line waiting">visualização</tspan><tspan dy="1em" x="0" class="v-line waiting">das linhas</tspan></text></g><g model-id="1d3a833c-672b-4fae-bdd6-1283034d4283" id="j_67" class="joint-cell joint-type-quality joint-element joint-theme-default waiting" data-type="Quality" fill="#ffffff" stroke="none" transform="translate(584,533)" style="cursor: move;"><g class="scalable waiting" transform="scale(0.7852376964064524,1.0380876717711)" style="cursor: move;"><path class="element waiting" id="v-402" d="m 60.637955,-4.0358 c 17.5174,2.2042 29.9953,-10.69554 41.892705,-4.7858 22.34142,10.8714 11.2203,43.7743 -2.25,47.7322 -8.276505,2.9084 -13.960205,5.1934 -46.142805,-2.1786 -6.7454,-2.2317 -28.2652,6.0799 -35.4643,4.7143 C 9.072156,39.4809 6.491756,33.7693 3.744956,28.482 c -6.3069,-15.1266 -2.5738,-28.0439 7.981099,-34.7856 10.5549,-6.74179 27.9316,-7.30796 48.9119,2.2678 z" fill="#FA463E" stroke="black" stroke-width="2" vector-effect="non-scaling-stroke" transform="matrix(1,0,0,1,-0.7,11.3)"/></g><text class="content waiting" id="v-403" font-size="12" xml:space="preserve" y="0.8em" font-weight="bold" text-anchor="middle" fill="#000000" font-family="Arial, helvetica, sans-serif" transform="matrix(1,0,0,1,45,17.6)"><tspan dy="0" class="v-line waiting">Estimativa de</tspan><tspan dy="1em" x="0" class="v-line waiting">tempo</tspan></text></g><g model-id="e40a9c90-79e5-4d96-af32-a5e73f11d1c6" id="j_70" class="joint-cell joint-type-resource joint-element joint-theme-default waiting" data-type="Resource" fill="#ffffff" stroke="none" transform="translate(585,452)" style="cursor: move;"><g class="scalable waiting" transform="scale(0.6923076923076923,1.1666666666666667)" style="cursor: move;"><rect class="element waiting" id="v-417" fill="#6357FA" height="30" rx="0" stroke="black" stroke-width="2" vector-effect="non-scaling-stroke" width="130"/></g><text class="content waiting" id="v-418" font-size="12" xml:space="preserve" y="0.8em" font-weight="bold" fill="#000000" text-anchor="middle" font-family="Arial, helvetica, sans-serif" transform="matrix(1,0,0,1,45,5.9)"><tspan dy="0" class="v-line waiting">Informação de</tspan><tspan dy="1em" x="0" class="v-line waiting">tempo e local</tspan></text></g><g model-id="465a809a-1c1f-432b-8028-79c3f27639b3" id="j_73" class="joint-cell joint-type-resource joint-element joint-theme-default waiting" data-type="Resource" fill="#ffffff" stroke="none" transform="translate(570,366)" style="cursor: move;"><g class="scalable waiting" transform="scale(0.896875,1.65625)" style="cursor: move;"><rect class="element waiting" id="v-432" fill="#6357FA" height="30" rx="0" stroke="black" stroke-width="2" vector-effect="non-scaling-stroke" width="130"/></g><text class="content waiting" id="v-433" font-size="12" xml:space="preserve" y="0.8em" font-weight="bold" fill="#000000" text-anchor="middle" font-family="Arial, helvetica, sans-serif" transform="matrix(1,0,0,1,58.3,13.2)"><tspan dy="0" class="v-line waiting">Passo a passo de</tspan><tspan dy="1em" x="0" class="v-line waiting">como seguir a rota</tspan></text></g><g model-id="dd3c5830-c796-49f7-8a3b-6cb5533b8ec3" id="j_76" class="joint-cell joint-type-resource joint-element joint-theme-default waiting" data-type="Resource" fill="#ffffff" stroke="none" transform="translate(584,124)" style="cursor: move;"><g class="scalable waiting" transform="scale(0.6923076923076923,1.1666666666666667)" style="cursor: move;"><rect class="element waiting" id="v-481" fill="#6357FA" height="30" rx="0" stroke="black" stroke-width="2" vector-effect="non-scaling-stroke" width="130"/></g><text class="content waiting" id="v-482" font-size="12" xml:space="preserve" y="0.8em" font-weight="bold" fill="#000000" text-anchor="middle" font-family="Arial, helvetica, sans-serif" transform="matrix(1,0,0,1,45,5.9)"><tspan dy="0" class="v-line waiting">Lista de locais</tspan><tspan dy="1em" x="0" class="v-line waiting">recentes</tspan></text></g></g><g id="v-5" class="joint-tools-container waiting" style="cursor: move;" transform="matrix(1,0,0,1,-148,-14)"><g class="joint-tools joint-theme-default waiting" style="cursor: move;"><g class="joint-tool joint-theme-default waiting" data-tool-name="vertices" model-id="dc98d011-84e1-471c-996e-66c49a249e3c" style="cursor: move; display: none;"><path fill="none" stroke="transparent" stroke-width="10" cursor="cell" joint-selector="connection" d="M 238 271.82 L 584.24 62.51" class="joint-vertices-path waiting"/></g></g><g class="joint-tools joint-theme-default waiting" style="cursor: move;"><g class="joint-tool joint-theme-default waiting" data-tool-name="vertices" model-id="677b0c2d-45c6-43fc-af9d-ca37d820d2b9" style="cursor: move; display: none;"><path fill="none" stroke="transparent" stroke-width="10" cursor="cell" joint-selector="connection" d="M 652.94 62.51 L 1020 249.61" class="joint-vertices-path waiting"/></g></g><g class="joint-tools joint-theme-default waiting" style="cursor: move;"><g class="joint-tool joint-theme-default waiting" data-tool-name="vertices" model-id="368449c5-dca4-4721-aca0-b77611d9d456" style="cursor: move; display: none;"><path fill="none" stroke="transparent" stroke-width="10" cursor="cell" joint-selector="connection" d="M 238 289.95 L 593 236.28" class="joint-vertices-path waiting"/></g></g><g class="joint-tools joint-theme-default waiting" style="cursor: move;"><g class="joint-tool joint-theme-default waiting" data-tool-name="vertices" model-id="3c2f8e6c-941c-4082-bbe6-7050f862b6c2" style="cursor: move; display: none;"><path fill="none" stroke="transparent" stroke-width="10" cursor="cell" joint-selector="connection" d="M 673.34 233.96 L 1020 266.27" class="joint-vertices-path waiting"/></g></g><g class="joint-tools joint-theme-default waiting" style="cursor: move;"><g class="joint-tool joint-theme-default waiting" data-tool-name="vertices" model-id="7f179c16-9801-4bc2-9fc0-4704ec6e3441" style="cursor: move; display: none;"><path fill="none" stroke="transparent" stroke-width="10" cursor="cell" joint-selector="connection" d="M 1020 273.36 L 674.17 302.41" class="joint-vertices-path waiting"/></g></g><g class="joint-tools joint-theme-default waiting" style="cursor: move;"><g class="joint-tool joint-theme-default waiting" data-tool-name="vertices" model-id="0b9060d1-f964-4333-8321-db789658084c" style="cursor: move; display: none;"><path fill="none" stroke="transparent" stroke-width="10" cursor="cell" joint-selector="connection" d="M 588.5 305.02 L 238 296.92" class="joint-vertices-path waiting"/></g></g><g class="joint-tools joint-theme-default waiting" style="cursor: move;"><g class="joint-tool joint-theme-default waiting" data-tool-name="vertices" model-id="a9960579-3527-4d3b-b895-e01fad34bf96" style="cursor: move; display: none;"><path fill="none" stroke="transparent" stroke-width="10" cursor="cell" joint-selector="connection" d="M 1020 305.97 L 644.14 644.01" class="joint-vertices-path waiting"/></g></g><g class="joint-tools joint-theme-default waiting" style="cursor: move;"><g class="joint-tool joint-theme-default waiting" data-tool-name="vertices" model-id="df084e94-7f62-49db-bc7c-a9aed5287cf2" style="cursor: move; display: none;"><path fill="none" stroke="transparent" stroke-width="10" cursor="cell" joint-selector="connection" d="M 614.13 644.01 L 238 329.45" class="joint-vertices-path waiting"/></g></g><g class="joint-tools joint-theme-default waiting" style="cursor: move;"><g class="joint-tool joint-theme-default waiting" data-tool-name="vertices" model-id="6522fd57-d36e-479b-8e42-ac1e0ac6bf13" style="cursor: move; display: none;"><path fill="none" stroke="transparent" stroke-width="10" cursor="cell" joint-selector="connection" d="M 1024.6 310 L 648.48 735.01" class="joint-vertices-path waiting"/></g></g><g class="joint-tools joint-theme-default waiting" style="cursor: move;"><g class="joint-tool joint-theme-default waiting" data-tool-name="vertices" model-id="c9c8fdb7-61e2-4f14-ba31-a9c4a1617246" style="cursor: move; display: none;"><path fill="none" stroke="transparent" stroke-width="10" cursor="cell" joint-selector="connection" d="M 613.67 735.01 L 235.87 336" class="joint-vertices-path waiting"/></g></g><g class="joint-tools joint-theme-default waiting" style="cursor: move;"><g class="joint-tool joint-theme-default waiting" data-tool-name="vertices" model-id="2b72d076-ea0a-4fb0-8e66-a65b8fffa662" style="cursor: move; display: none;"><path fill="none" stroke="transparent" stroke-width="10" cursor="cell" joint-selector="connection" d="M 229.62 336 L 621.15 831.21" class="joint-vertices-path waiting"/></g></g><g class="joint-tools joint-theme-default waiting" style="cursor: move;"><g class="joint-tool joint-theme-default waiting" data-tool-name="vertices" model-id="75fbceeb-b8aa-41bb-8cd1-9c227a6ade6c" style="cursor: move; display: none;"><path fill="none" stroke="transparent" stroke-width="10" cursor="cell" joint-selector="connection" d="M 650.05 831.21 L 1030.78 310" class="joint-vertices-path waiting"/></g></g><g class="joint-tools joint-theme-default waiting" style="cursor: move;"><g class="joint-tool joint-theme-default waiting" data-tool-name="vertices" model-id="524a1951-0e9d-408f-94a8-aba6ee565322" style="cursor: move; display: none;"><path fill="none" stroke="transparent" stroke-width="10" cursor="cell" joint-selector="connection" d="M 238 320.7 L 608.11 549.21" class="joint-vertices-path waiting"/></g></g><g class="joint-tools joint-theme-default waiting" style="cursor: move;"><g class="joint-tool joint-theme-default waiting" data-tool-name="vertices" model-id="77516042-4af0-499c-9bc3-fe7c3d4b8a74" style="cursor: move; display: none;"><path fill="none" stroke="transparent" stroke-width="10" cursor="cell" joint-selector="connection" d="M 648.34 549.21 L 1020 297.13" class="joint-vertices-path waiting"/></g></g><g class="joint-tools joint-theme-default waiting" style="cursor: move;"><g class="joint-tool joint-theme-default waiting" data-tool-name="vertices" model-id="43c4b7d9-612c-4e42-ad3b-789f378c2005" style="cursor: move; display: none;"><path fill="none" stroke="transparent" stroke-width="10" cursor="cell" joint-selector="connection" d="M 238 312.06 L 597.79 456.51" class="joint-vertices-path waiting"/></g></g><g class="joint-tools joint-theme-default waiting" style="cursor: move;"><g class="joint-tool joint-theme-default waiting" data-tool-name="vertices" model-id="1c06efcf-8036-4f40-a90e-f9f2445afebc" style="cursor: move; display: none;"><path fill="none" stroke="transparent" stroke-width="10" cursor="cell" joint-selector="connection" d="M 658.18 456.51 L 1020 288.57" class="joint-vertices-path waiting"/></g></g><g class="joint-tools joint-theme-default waiting" style="cursor: move;"><g class="joint-tool joint-theme-default waiting" data-tool-name="vertices" model-id="f390c191-d721-459e-8a6e-335f7a9054b6" style="cursor: move; display: none;"><path fill="none" stroke="transparent" stroke-width="10" cursor="cell" joint-selector="connection" d="M 238 304.81 L 573.63 378.73" class="joint-vertices-path waiting"/></g></g><g class="joint-tools joint-theme-default waiting" style="cursor: move;"><g class="joint-tool joint-theme-default waiting" data-tool-name="vertices" model-id="99ea656c-b329-44f1-b0dc-7dd2a7166ece" style="cursor: move; display: none;"><path fill="none" stroke="transparent" stroke-width="10" cursor="cell" joint-selector="connection" d="M 674.91 377.81 L 1020 281.2" class="joint-vertices-path waiting"/></g></g><g class="joint-tools joint-theme-default waiting" style="cursor: move;"><g class="joint-tool joint-theme-default waiting" data-tool-name="vertices" model-id="85d5876e-1989-4024-9966-cb60a7ffb298" style="cursor: move; display: none;"><path fill="none" stroke="transparent" stroke-width="10" cursor="cell" joint-selector="connection" d="M 238 281.67 L 592.88 154.51" class="joint-vertices-path waiting"/></g></g><g class="joint-tools joint-theme-default waiting" style="cursor: move;"><g class="joint-tool joint-theme-default waiting" data-tool-name="vertices" model-id="a2a63caa-d710-4706-b63c-6efb60c80461" style="cursor: move; display: none;"><path fill="none" stroke="transparent" stroke-width="10" cursor="cell" joint-selector="connection" d="M 685.33 279.69 L 1020 271.03" class="joint-vertices-path waiting"/></g></g></g></svg>